<svg width="259" height="221" viewBox="0 0 259 221" fill="none" xmlns="http://www.w3.org/2000/svg">
<g clip-path="url(#clip0_344_16)" filter="url(#filter0_d_344_16)">
<path d="M69.1899 70.634C66.4574 70.634 64.1152 72.8299 64.1152 75.7577C64.1152 78.6856 66.4574 80.5155 69.5802 80.5155C72.3127 80.5155 74.6549 78.3196 74.6549 75.3918C74.2645 72.8299 71.9224 70.634 69.1899 70.634Z" fill="white"/>
<path d="M35.2289 70.634C32.4964 70.634 30.1543 72.8299 30.1543 75.7577C30.1543 78.6856 32.4964 80.5155 35.2289 80.5155C37.9615 80.5155 40.3036 78.3196 40.3036 75.3918C40.694 72.8299 38.3518 70.634 35.2289 70.634Z" fill="white"/>
<path d="M45.3777 90.7628C44.9873 93.3247 47.3295 95.8865 50.062 96.2525C52.7945 96.6185 55.527 94.4226 55.9173 91.8608C55.9173 91.4948 55.9173 91.1288 55.9173 90.7628C55.9173 88.201 53.5752 87.103 50.8427 87.103C47.7198 87.469 45.3777 88.201 45.3777 90.7628Z" fill="white"/>
<path d="M171.073 97.3505C183.955 97.3505 194.494 92.2268 194.494 85.6392C194.494 79.0516 183.955 73.9279 171.073 73.9279C158.191 73.9279 147.651 79.0516 147.651 85.6392C147.651 92.2268 158.191 97.3505 171.073 97.3505Z" fill="white"/>
<path d="M194.495 63.6803C194.495 61.1185 192.153 58.5566 189.03 58.5566C186.297 58.5566 183.955 60.7525 183.955 63.6803C183.955 66.6082 186.297 68.4381 189.42 68.4381C192.153 68.4381 194.495 66.2422 194.495 63.6803Z" fill="white"/>
<path d="M253.829 54.8969C252.658 51.2371 250.706 47.9433 248.364 45.0155C239.776 34.0361 228.066 25.2526 214.793 19.7629C186.297 9.1495 155.069 9.1495 126.573 19.7629C121.888 21.9588 117.204 24.1547 112.91 27.0825V26.7165C110.178 18.299 106.274 9.88146 101.59 2.1959C101.199 1.82992 100.809 1.09796 100.419 0.731979C98.4669 -0.36596 95.7344 1.99211e-05 94.5633 1.82992C89.879 7.31961 85.9754 13.1753 82.8526 19.3969C80.1201 24.5206 77.7779 29.6443 75.8261 35.134C66.4576 33.3041 57.089 33.3041 47.7204 35.134C45.3782 29.6443 43.0361 24.5206 40.3036 19.3969C37.1807 13.1753 33.2772 6.95363 28.5929 1.46394C28.2025 1.09796 27.8122 0.731979 27.4218 0.365999C25.47 -0.731939 22.7375 1.99211e-05 21.5664 2.1959C11.0268 19.3969 5.17141 38.7938 4.00034 58.5567C3.21962 77.9536 8.68463 94.7887 18.8339 106.866C23.1279 112.722 28.9832 117.113 35.2289 120.407C44.5975 125.165 55.1372 126.995 65.6768 126.263C76.2165 125.531 86.3658 121.505 94.5633 115.65C100.419 111.258 105.493 105.768 109.397 99.5464C110.568 97.7165 109.787 95.1547 107.835 94.0567C105.884 92.9588 103.151 93.6907 101.98 95.5206C98.8572 101.01 94.5633 105.402 89.4887 109.062C82.4622 114.186 73.8744 117.479 64.8961 118.211C55.9179 118.943 46.9397 117.113 39.1325 113.454C33.6675 110.526 28.9832 106.866 25.47 102.474C16.8821 91.4949 12.1978 76.4897 12.5882 58.9227C13.3689 42.4536 18.0532 26.3505 25.8604 11.7114C28.2025 15.3712 30.5447 19.0309 32.4964 23.0567C35.6193 28.9124 38.3518 35.134 40.694 41.3557C41.4747 43.1856 43.8168 44.2835 45.7686 43.9175C55.9179 41.3557 66.4576 41.3557 76.6069 43.9175C78.949 44.6495 81.2912 43.5516 82.0719 41.3557C84.8044 35.134 87.1465 28.9124 90.2694 23.0567C92.2212 19.0309 94.5633 15.3712 96.9055 11.7114C100.028 17.2011 102.37 23.0567 104.322 29.2784C104.713 30.3763 105.103 31.4742 105.493 32.5722C100.809 36.232 96.9055 40.6237 93.0019 45.0155C90.6597 47.9433 88.7079 51.2371 87.5369 54.8969C86.7562 57.8248 86.3658 60.7526 86.7562 63.6804C87.1465 66.9742 89.0983 69.9021 91.8308 71.732C93.3922 72.8299 95.344 73.5619 97.2958 74.2938C99.638 75.0258 101.59 75.0258 103.932 75.0258C107.445 74.6598 110.568 73.1959 112.91 71C114.862 68.8041 116.423 66.2423 117.204 63.3144C118.375 59.6546 118.765 55.6289 118.375 51.6031C117.594 46.1134 116.814 40.6237 115.252 35.134C119.937 31.8402 124.621 28.9124 130.086 26.7165C142.968 21.5928 156.63 19.0309 170.683 19.3969C184.736 19.0309 198.398 21.2268 211.28 26.7165C223.381 31.8402 233.531 39.8918 241.338 49.7732C243.29 51.9691 244.461 54.5309 245.241 57.0928C246.022 58.9227 246.022 60.7526 246.022 62.2165C246.022 63.3144 245.241 64.4124 244.07 65.1443C243.29 65.5103 242.509 65.8763 241.728 66.2423C237.825 67.3402 234.702 64.0464 231.579 61.1186C231.188 60.7526 230.408 60.0206 230.017 59.6547C226.504 56.3608 222.601 53.067 218.697 50.1392C214.403 46.8454 209.719 43.9175 205.035 41.7217C203.863 40.9897 202.302 40.9897 201.131 41.3557C198.789 42.0876 198.008 44.6495 198.789 46.4794C200.741 50.8712 202.692 55.2629 205.035 59.6547C209.719 69.1701 214.403 79.0516 217.916 89.299C222.601 102.84 212.061 111.99 196.837 116.381C179.661 121.139 161.705 121.139 144.919 116.381C129.696 111.99 119.156 102.84 123.84 89.299C127.744 79.4175 132.038 69.5361 136.722 59.6547C138.674 55.2629 141.016 50.8712 142.968 46.4794C143.748 44.2835 142.968 42.0876 140.626 41.3557C138.283 40.6237 135.941 41.3557 135.161 43.5516C133.599 47.2114 131.257 51.6031 128.915 56.3608C123.84 66.2423 119.546 76.4897 115.643 86.7371C109.397 105.768 122.669 118.211 142.577 124.067C161.314 129.191 181.223 129.191 199.96 124.067C219.868 118.211 233.14 105.768 226.895 86.7371C222.991 76.4897 218.697 66.2423 213.622 56.3608V55.9949L214.013 56.3608C217.526 59.2887 221.039 62.2165 224.552 65.5103C224.943 65.8763 225.724 66.6083 226.114 66.9742C230.798 71.732 236.263 76.8557 245.241 74.2938C247.193 73.9278 249.145 72.8299 250.706 71.732C253.439 69.9021 255.391 66.6083 255.781 63.6804C255.391 60.7526 255 57.8248 253.829 54.8969ZM109.397 61.1186C109.007 62.5825 108.226 64.4124 107.055 65.5103C106.274 66.6083 105.103 66.9742 103.542 66.9742C102.37 66.9742 101.199 66.9742 100.028 66.6083C99.2476 66.2423 98.0765 65.8763 97.6862 65.5103C96.5151 64.7784 96.1247 63.6804 95.7344 62.5825C95.344 60.7526 95.7344 58.9227 96.5151 57.4588C97.2958 54.8969 98.8572 52.3351 100.419 50.1392C102.761 47.2114 105.493 44.2835 108.226 41.7217C109.007 45.3815 109.787 49.0413 110.178 53.067C110.568 55.2629 110.178 58.1907 109.397 61.1186Z" fill="white"/>
<path d="M154.678 68.4381C157.41 68.4381 159.753 66.2422 159.753 63.3144C159.753 60.7525 157.41 58.1907 154.288 58.1907C151.555 58.1907 149.213 60.3865 149.213 63.3144C149.213 66.2422 151.945 68.4381 154.678 68.4381Z" fill="white"/>
<path d="M66.8474 154.443C64.8956 152.979 62.9438 151.881 60.992 151.149C59.0402 150.417 56.6981 150.052 54.7463 150.052H39.5224C37.5706 150.052 36.3995 150.417 35.6188 150.783C34.8381 151.149 34.4477 151.881 34.0573 152.613C33.667 153.345 33.667 154.443 33.667 155.175V193.237C33.667 193.969 33.667 195.067 34.0573 195.799C34.4477 196.531 34.8381 197.263 35.6188 197.995C36.3995 198.361 37.5706 198.727 39.5224 198.727C41.4741 198.727 42.6452 198.361 43.4259 197.995C44.2067 197.629 44.597 196.897 44.9874 196.165C45.3777 195.433 45.3777 194.335 45.3777 193.603V184.454H54.7463C56.6981 184.454 59.0402 184.088 60.992 183.356C62.9438 182.624 64.8956 181.526 66.8474 180.062C68.7992 178.598 69.9703 176.768 71.1413 174.572C72.3124 172.376 72.7028 169.814 72.7028 167.253C72.7028 164.325 72.3124 161.763 71.1413 159.567C70.3606 157.737 68.7992 155.907 66.8474 154.443ZM60.6017 171.278C59.821 172.376 59.0402 173.108 57.8692 173.474C56.6981 173.84 55.9174 174.206 54.7463 174.206H44.9874V161.031H54.7463C56.3077 161.031 57.4788 161.397 58.2595 161.763C59.0402 162.129 60.2113 163.227 60.6017 163.959C61.3824 165.057 61.3824 166.155 61.3824 167.253C61.7727 169.082 61.3824 170.18 60.6017 171.278Z" fill="white"/>
<path d="M110.958 182.99C112.129 181.892 112.91 179.696 112.91 177.5C112.91 176.036 112.519 174.572 111.739 173.108C110.958 171.644 110.177 170.18 108.616 168.716C107.445 167.253 105.493 166.155 103.541 165.423C101.589 164.691 98.8568 163.959 96.1243 163.959C92.2208 163.959 88.7075 164.691 85.975 166.155C82.8522 167.619 80.51 169.814 78.9486 172.376C77.3872 174.938 76.6064 178.232 76.6064 181.526C76.6064 183.722 76.9968 185.918 77.7775 187.747C78.5582 189.943 79.7293 191.773 81.2907 193.603C82.8522 195.433 84.804 196.897 87.5365 197.629C89.8786 198.727 93.0015 199.093 96.5147 199.093C99.6376 199.093 102.37 198.727 104.322 198.361C106.664 197.995 108.225 197.263 109.396 196.165C110.568 195.433 111.348 194.335 111.348 193.237C111.348 192.871 111.348 192.139 111.348 191.773C111.348 191.407 110.958 190.675 110.568 190.309C110.177 189.577 109.396 188.845 109.006 188.479C108.616 188.113 107.835 187.747 107.054 187.747C106.664 187.747 106.274 187.747 105.883 188.113C105.493 188.479 105.103 188.479 104.322 188.479C103.931 188.845 103.151 188.845 102.37 189.211C101.589 189.577 100.809 189.577 100.028 189.577C99.2472 189.577 98.0761 189.577 96.905 189.577C95.3436 189.577 94.1725 189.211 93.0015 188.845C91.8304 188.479 90.6593 187.747 89.8786 187.015C89.0979 186.283 88.7075 185.186 88.3172 184.088H105.883C107.835 184.82 109.396 184.088 110.958 182.99ZM101.589 178.598C101.199 178.964 100.809 178.964 100.028 178.964H88.3172C88.3172 177.866 88.7075 176.768 89.4882 176.036C90.269 174.938 91.0497 174.206 92.2208 173.84C93.3918 173.108 94.9533 173.108 96.1243 173.108C97.2954 173.108 98.4665 173.108 99.2472 173.474C100.028 173.84 100.809 174.206 101.589 174.938C102.37 175.67 102.37 176.402 102.37 177.134C102.37 177.866 101.98 178.232 101.589 178.598Z" fill="white"/>
<path d="M141.015 164.691C140.235 164.691 139.454 164.325 138.283 164.325H133.208V157.737C133.208 156.639 133.208 155.907 132.818 155.175C132.818 154.443 132.037 153.711 131.256 153.345C130.476 152.979 129.305 152.613 127.353 152.613C125.401 152.613 124.23 152.979 123.449 153.345C122.668 153.711 122.278 154.443 121.888 155.175C121.888 155.907 121.497 156.639 121.497 157.737V164.691H119.155C117.594 164.691 116.813 165.057 116.032 165.789C115.252 166.521 114.861 167.985 114.861 169.448C114.861 171.278 115.252 172.376 115.642 173.474C116.032 174.572 117.203 174.572 118.765 174.572H121.497V185.552C121.497 187.747 121.888 189.943 122.278 191.407C122.668 193.237 123.84 194.335 125.011 195.433C126.182 196.531 127.743 197.263 129.305 197.629C131.256 197.995 133.208 198.361 135.941 198.361C136.721 198.361 137.892 198.361 138.673 197.995C139.454 197.629 140.235 197.263 140.625 196.531C141.015 195.799 141.406 194.701 141.406 192.871C141.406 191.407 141.015 190.309 140.625 189.577C140.235 188.845 139.454 188.479 138.673 188.479C137.892 188.113 136.721 188.113 135.941 188.113C135.16 188.113 134.77 188.113 134.379 188.113C133.989 188.113 133.598 187.747 133.208 187.747C132.818 187.747 132.818 187.015 132.818 186.649C132.818 186.284 132.818 185.552 132.818 184.82V174.206H137.892C139.064 174.206 139.844 174.206 140.625 173.84C141.406 173.474 142.186 173.108 142.577 172.376C142.967 171.644 143.357 170.546 143.357 169.082C143.357 167.253 142.967 166.155 142.577 165.423C142.577 165.423 141.796 164.691 141.015 164.691Z" fill="white"/>
<path d="M171.464 164.691C170.683 164.691 169.902 164.325 168.731 164.325H163.656V157.737C163.656 156.639 163.656 155.907 163.266 155.175C163.266 154.443 162.485 153.711 161.705 153.345C160.924 152.979 159.753 152.613 157.801 152.613C155.849 152.613 154.678 152.979 153.897 153.345C153.117 153.711 152.726 154.443 152.336 155.175C152.336 155.907 151.946 156.639 151.946 157.737V164.691H149.603C148.042 164.691 147.261 165.057 146.481 165.789C145.7 166.521 145.31 167.985 145.31 169.448C145.31 171.278 145.7 172.376 146.09 173.474C146.481 174.572 147.652 174.572 149.213 174.572H151.946V185.552C151.946 187.747 152.336 189.943 152.726 191.407C153.117 193.237 154.288 194.335 155.459 195.433C156.63 196.531 158.191 197.263 159.753 197.629C161.705 197.995 163.656 198.361 166.389 198.361C167.17 198.361 168.341 198.361 169.121 197.995C169.902 197.629 170.683 197.263 171.073 196.531C171.464 195.799 171.854 194.701 171.854 192.871C171.854 191.407 171.464 190.309 171.073 189.577C170.683 188.845 169.902 188.479 169.121 188.479C168.341 188.113 167.17 188.113 166.389 188.113C165.608 188.113 165.218 188.113 164.827 188.113C164.437 188.113 164.047 187.747 163.656 187.747C163.266 187.381 163.266 187.015 163.266 186.649C163.266 186.284 163.266 185.552 163.266 184.82V174.206H168.341C169.512 174.206 170.292 174.206 171.073 173.84C171.854 173.474 172.635 173.108 173.025 172.376C173.415 171.644 173.806 170.546 173.806 169.082C173.806 167.253 173.415 166.155 173.025 165.423C173.025 165.423 172.244 164.691 171.464 164.691Z" fill="white"/>
<path d="M212.451 164.325C210.499 163.593 208.937 163.227 207.766 163.593C206.595 163.959 205.815 165.057 205.034 166.887L198.007 181.526L187.468 166.521C186.297 165.057 185.126 163.959 184.345 163.593C183.174 163.227 181.612 163.593 180.051 165.057C178.489 166.155 177.318 167.253 176.928 168.351C176.538 169.448 177.318 170.546 178.099 172.01L192.542 192.871L186.297 206.046C185.516 207.876 185.126 208.974 185.516 210.072C185.906 211.17 187.077 211.902 189.029 213C190.981 213.732 192.542 214.098 193.713 213.732C194.884 213.366 195.665 212.268 196.446 210.438L215.183 171.278C215.964 169.814 216.354 168.351 215.964 167.253C215.573 166.155 214.402 165.423 212.451 164.325Z" fill="white"/>
</g>
<defs>
<filter id="filter0_d_344_16" x="0" y="0" width="259" height="221" filterUnits="userSpaceOnUse" color-interpolation-filters="sRGB">
<feFlood flood-opacity="0" result="BackgroundImageFix"/>
<feColorMatrix in="SourceAlpha" type="matrix" values="0 0 0 0 0 0 0 0 0 0 0 0 0 0 0 0 0 0 127 0" result="hardAlpha"/>
<feOffset dy="4"/>
<feGaussianBlur stdDeviation="2"/>
<feComposite in2="hardAlpha" operator="out"/>
<feColorMatrix type="matrix" values="0 0 0 0 0 0 0 0 0 0 0 0 0 0 0 0 0 0 0.25 0"/>
<feBlend mode="normal" in2="BackgroundImageFix" result="effect1_dropShadow_344_16"/>
<feBlend mode="normal" in="SourceGraphic" in2="effect1_dropShadow_344_16" result="shape"/>
</filter>
<clipPath id="clip0_344_16">
<rect width="251" height="213" fill="white" transform="translate(4)"/>
</clipPath>
</defs>
</svg>
