<svg width="925" height="185" viewBox="0 0 925 185" fill="none" xmlns="http://www.w3.org/2000/svg">
<path d="M0.800001 144V-5.72205e-06H61.6C71.8667 -5.72205e-06 80.8 1.73333 88.4 5.2C96 8.66666 101.8 13.5333 105.8 19.8C109.933 26.0667 112 33.4 112 41.8C112 50.0667 109.933 57.3333 105.8 63.6C101.8 69.8667 96 74.7333 88.4 78.2C80.8 81.6667 71.8667 83.4 61.6 83.4H21.2V63.6H60.8C69.2 63.6 75.6 61.6667 80 57.8C84.5333 53.9333 86.8 48.6 86.8 41.8C86.8 35 84.6 29.8 80.2 26.2C75.8 22.4667 69.3333 20.6 60.8 20.6H26.8V144H0.800001ZM83.2 144L19 70.4H48.2L119.2 144H83.2ZM174.958 146C164.158 146 154.691 143.733 146.558 139.2C138.558 134.667 132.291 128.4 127.758 120.4C123.358 112.4 121.158 103.2 121.158 92.8C121.158 82.4 123.358 73.2667 127.758 65.4C132.291 57.4 138.558 51.2 146.558 46.8C154.558 42.2667 163.891 40 174.558 40C184.691 40 193.491 42.1333 200.958 46.4C208.424 50.5333 214.224 56.4 218.358 64C222.491 71.6 224.558 80.4667 224.558 90.6C224.558 92.4667 224.491 94.2 224.358 95.8C224.224 97.4 224.024 99 223.758 100.6H136.758V83H204.358L199.158 87.8C199.158 78.2 196.958 71 192.558 66.2C188.158 61.4 182.024 59 174.158 59C165.624 59 158.824 61.9333 153.758 67.8C148.824 73.6667 146.358 82.1333 146.358 93.2C146.358 104.133 148.824 112.533 153.758 118.4C158.824 124.133 165.958 127 175.158 127C180.491 127 185.158 126 189.158 124C193.158 122 196.091 118.933 197.958 114.8H221.758C218.424 124.4 212.758 132 204.758 137.6C196.891 143.2 186.958 146 174.958 146ZM317.192 144V121L319.192 121.4C317.459 128.867 313.259 134.867 306.592 139.4C299.926 143.8 291.992 146 282.792 146C273.459 146 265.326 143.867 258.392 139.6C251.592 135.2 246.326 129.067 242.592 121.2C238.859 113.333 236.992 104.067 236.992 93.4C236.992 82.6 238.926 73.2 242.792 65.2C246.659 57.2 252.059 51 258.992 46.6C266.059 42.2 274.259 40 283.592 40C293.192 40 301.126 42.3333 307.392 47C313.659 51.5333 317.526 57.8667 318.992 66L316.392 66.2V-5.72205e-06H341.792V144H317.192ZM290.192 125.4C298.326 125.4 304.792 122.6 309.592 117C314.526 111.267 316.992 103.267 316.992 93C316.992 82.7333 314.526 74.8 309.592 69.2C304.659 63.6 298.126 60.8 289.992 60.8C281.992 60.8 275.526 63.6667 270.592 69.4C265.659 75 263.192 82.9333 263.192 93.2C263.192 103.467 265.659 111.4 270.592 117C275.526 122.6 282.059 125.4 290.192 125.4ZM401.611 146C394.544 146 388.411 144.533 383.211 141.6C378.144 138.533 374.211 134.4 371.411 129.2C368.744 124 367.411 118.133 367.411 111.6V42H392.611V106.4C392.611 112.667 394.144 117.4 397.211 120.6C400.411 123.8 404.878 125.4 410.611 125.4C415.811 125.4 420.344 124.2 424.211 121.8C428.211 119.4 431.344 116.067 433.611 111.8C436.011 107.4 437.211 102.467 437.211 97L439.811 121.4C436.478 128.867 431.478 134.867 424.811 139.4C418.278 143.8 410.544 146 401.611 146ZM438.011 144V120H437.211V42H462.611V144H438.011ZM554.431 144L523.031 98.4L480.631 42H509.231L537.631 83.4L583.031 144H554.431ZM525.031 82.6L553.631 42H581.631L537.231 100.2L525.031 82.6ZM535.031 101.4L504.231 144H476.431L523.031 83.6L535.031 101.4ZM660.014 146C650.281 146 642.347 143.733 636.214 139.2C630.214 134.533 626.481 128.133 625.014 120L627.014 119.8V185H601.814V42H626.414V65L624.414 64.6C626.281 57 630.547 51 637.214 46.6C643.881 42.2 652.014 40 661.614 40C670.681 40 678.547 42.2 685.214 46.6C692.014 50.8667 697.281 56.9333 701.014 64.8C704.747 72.6667 706.614 81.9333 706.614 92.6C706.614 103.4 704.681 112.8 700.814 120.8C696.947 128.8 691.547 135 684.614 139.4C677.681 143.8 669.481 146 660.014 146ZM653.614 125.2C661.747 125.2 668.214 122.4 673.014 116.8C677.814 111.067 680.214 103.067 680.214 92.8C680.214 82.5333 677.747 74.6 672.814 69C668.014 63.4 661.547 60.6 653.414 60.6C645.414 60.6 638.947 63.4667 634.014 69.2C629.081 74.8 626.614 82.7333 626.614 93C626.614 103.267 629.081 111.2 634.014 116.8C638.947 122.4 645.481 125.2 653.614 125.2ZM789.438 144C788.771 141.333 788.238 138.4 787.838 135.2C787.571 132 787.438 128.133 787.438 123.6H786.638V75.2C786.638 69.8667 785.104 65.8667 782.038 63.2C779.104 60.4 774.571 59 768.438 59C762.438 59 757.638 60.1333 754.038 62.4C750.571 64.5333 748.438 67.6667 747.638 71.8H723.438C724.504 62.3333 729.038 54.6667 737.038 48.8C745.038 42.9333 755.771 40 769.238 40C783.238 40 793.838 43.2 801.038 49.6C808.238 55.8667 811.838 65.1333 811.838 77.4V123.6C811.838 126.8 812.038 130.067 812.438 133.4C812.971 136.733 813.704 140.267 814.638 144H789.438ZM754.038 146C743.771 146 735.571 143.467 729.438 138.4C723.438 133.2 720.438 126.267 720.438 117.6C720.438 108.267 723.838 100.867 730.638 95.4C737.438 89.9333 747.038 86.2667 759.438 84.4L791.238 79.6V95.6L763.638 99.8C757.638 100.733 753.104 102.4 750.038 104.8C747.104 107.2 745.638 110.533 745.638 114.8C745.638 118.667 747.038 121.667 749.838 123.8C752.638 125.8 756.504 126.8 761.438 126.8C768.638 126.8 774.638 125 779.438 121.4C784.238 117.8 786.638 113.4 786.638 108.2L789.438 123.6C786.771 130.933 782.371 136.533 776.238 140.4C770.238 144.133 762.838 146 754.038 146ZM837.706 185L864.106 125.8L868.706 118.2L897.506 42H924.306L863.306 185H837.706ZM860.306 143L818.906 42H846.306L880.906 133.6L860.306 143Z" fill="white"/>
</svg>
